<?xml version="1.0" standalone="no"?>
<!DOCTYPE svg PUBLIC "-//W3C//DTD SVG 20010904//EN"
 "http://www.w3.org/TR/2001/REC-SVG-20010904/DTD/svg10.dtd">
<svg version="1.0" xmlns="http://www.w3.org/2000/svg"
 width="225.000000pt" height="225.000000pt" viewBox="0 0 225.000000 225.000000"
 preserveAspectRatio="xMidYMid meet">

<g transform="translate(0.000000,225.000000) scale(0.100000,-0.100000)"
fill="#000000" stroke="none">
<path d="M932 2239 c-103 -20 -193 -96 -234 -198 l-23 -56 0 -800 0 -800 29
-75 c56 -146 136 -235 253 -281 83 -33 253 -33 336 0 117 46 197 135 253 281
l29 75 3 759 c2 561 0 762 -9 772 -13 16 -47 18 -69 4 -13 -8 -16 -110 -20
-787 l-5 -778 -26 -55 c-50 -105 -113 -159 -222 -186 -78 -20 -176 -14 -246
16 -56 25 -128 95 -159 157 -53 102 -53 104 -50 925 l3 763 22 41 c50 94 149
143 260 130 98 -11 154 -52 195 -141 l23 -50 3 -735 2 -735 -22 -44 c-32 -62
-64 -83 -126 -83 -64 0 -113 28 -138 80 -18 35 -19 78 -22 716 -2 477 -6 683
-13 693 -14 16 -61 17 -77 1 -9 -9 -12 -178 -12 -698 0 -761 -1 -750 65 -827
45 -53 101 -75 192 -75 124 0 201 59 238 184 14 49 15 143 13 799 l-3 744 -23
57 c-27 66 -99 151 -151 177 -72 37 -176 49 -269 30z"/>
</g>
</svg>
