<?xml version="1.0" standalone="no"?>
<!DOCTYPE svg PUBLIC "-//W3C//DTD SVG 20010904//EN"
 "http://www.w3.org/TR/2001/REC-SVG-20010904/DTD/svg10.dtd">
<svg version="1.0" xmlns="http://www.w3.org/2000/svg"
 width="128.000000pt" height="128.000000pt" viewBox="0 0 128.000000 128.000000"
 preserveAspectRatio="xMidYMid meet">

<g transform="translate(0.000000,128.000000) scale(0.100000,-0.100000)"
fill="#000000" stroke="none">
<path d="M606 1264 c-14 -14 -16 -67 -16 -437 l0 -422 -77 77 c-97 94 -116
105 -149 83 -44 -28 -31 -53 84 -167 59 -58 117 -111 129 -117 28 -14 98 -14
126 0 36 18 237 222 237 241 0 24 -28 48 -57 48 -18 0 -49 -23 -109 -82 l-84
-82 0 422 c0 369 -2 422 -16 436 -8 9 -24 16 -34 16 -10 0 -26 -7 -34 -16z"/>
<path d="M22 414 c-23 -16 -23 -19 -20 -164 3 -162 8 -177 72 -224 27 -21 38
-21 566 -21 528 0 539 0 566 21 64 47 69 62 72 224 3 145 3 148 -20 164 -30
21 -44 20 -68 -4 -18 -18 -20 -33 -20 -148 0 -86 -4 -132 -12 -140 -17 -17
-1019 -17 -1036 0 -8 8 -12 54 -12 140 0 115 -2 130 -20 148 -24 24 -38 25
-68 4z"/>
</g>
</svg>
